<svg xmlns="http://www.w3.org/2000/svg" viewBox="0 0 336.21 391.37"><defs><style>.cls-1{fill:#d3213d;}</style></defs><title>logo_icon</title><g id="Layer_2" data-name="Layer 2"><g id="Layer_1-2" data-name="Layer 1"><polygon class="cls-1" points="321.9 89.51 288.73 70.2 261.02 118.49 261.02 117.92 261.02 54.08 224.15 32.62 224.15 189.36 152.53 313.4 152.53 382.3 168.11 391.37 189.89 378.69 189.89 323.28 227.25 258.57 227.25 356.94 264.6 335.2 264.6 189.36 288.06 148.49 288.06 148.49 321.9 89.51"/><polygon class="cls-1" points="301.96 199.31 301.96 313.46 336.21 293.52 336.21 238.41 336.21 139.63 301.96 199.31"/><polygon class="cls-1" points="186.79 62.44 186.79 10.88 168.1 0 149.43 10.87 149.43 45.81 149.43 168.65 112.08 233.35 112.08 35.73 112.08 32.61 107.94 35.02 107.94 35.02 0 97.84 0 293.52 37.36 315.27 37.36 119.81 74.72 98.24 74.72 337.01 115.17 360.56 115.17 303.4 186.79 179.35 186.79 62.44"/></g></g></svg>